jumping_motion
nRows=48
nColumns=24
inDegrees=yes
endheader
time	pelvis_tilt	pelvis_list	pelvis_rotation	pelvis_tx	pelvis_ty	pelvis_tz	hip_flexion_r	hip_adduction_r	hip_rotation_r	knee_angle_r	ankle_angle_r	subtalar_angle_r	mtp_angle_r	hip_flexion_l	hip_adduction_l	hip_rotation_l	knee_angle_l	ankle_angle_l	subtalar_angle_l	mtp_angle_l	lumbar_extension	lumbar_bending	lumbar_rotation
1.250000	0.000000	0.000000	0.000000	0.000000	1.114815	0.000000	5.185185	0.000000	0.000000	-10.370370	-30.000000	0.000000	0.000000	5.185185	0.000000	0.000000	-10.370370	-30.000000	0.000000	0.000000	0.000000	0.000000	0.000000
1.260000	0.000000	0.000000	0.000000	0.000000	1.138000	0.000000	7.040000	0.000000	0.000000	-14.080000	-30.000000	0.000000	0.000000	7.040000	0.000000	0.000000	-14.080000	-30.000000	0.000000	0.000000	0.000000	0.000000	0.000000
1.270000	0.000000	0.000000	0.000000	0.000000	1.162519	0.000000	9.001481	0.000000	0.000000	-18.002963	-30.000000	0.000000	0.000000	9.001481	0.000000	0.000000	-18.002963	-30.000000	0.000000	0.000000	0.000000	0.000000	0.000000
1.280000	0.000000	0.000000	0.000000	0.000000	1.187481	0.000000	10.998519	0.000000	0.000000	-21.997037	-30.000000	0.000000	0.000000	10.998519	0.000000	0.000000	-21.997037	-30.000000	0.000000	0.000000	0.000000	0.000000	0.000000
1.290000	0.000000	0.000000	0.000000	0.000000	1.212000	0.000000	12.960000	0.000000	0.000000	-25.920000	-30.000000	0.000000	0.000000	12.960000	0.000000	0.000000	-25.920000	-30.000000	0.000000	0.000000	0.000000	0.000000	0.000000
1.300000	0.000000	0.000000	0.000000	0.000000	1.235185	0.000000	14.814815	0.000000	0.000000	-29.629630	-30.000000	0.000000	0.000000	14.814815	0.000000	0.000000	-29.629630	-30.000000	0.000000	0.000000	0.000000	0.000000	0.000000
1.310000	0.000000	0.000000	0.000000	0.000000	1.256148	0.000000	16.491852	0.000000	0.000000	-32.983704	-30.000000	0.000000	0.000000	16.491852	0.000000	0.000000	-32.983704	-30.000000	0.000000	0.000000	0.000000	0.000000	0.000000
1.320000	0.000000	0.000000	0.000000	0.000000	1.274000	0.000000	17.920000	0.000000	0.000000	-35.840000	-30.000000	0.000000	0.000000	17.920000	0.000000	0.000000	-35.840000	-30.000000	0.000000	0.000000	0.000000	0.000000	0.000000
1.330000	0.000000	0.000000	0.000000	0.000000	1.287852	0.000000	19.028148	0.000000	0.000000	-38.056296	-30.000000	0.000000	0.000000	19.028148	0.000000	0.000000	-38.056296	-30.000000	0.000000	0.000000	0.000000	0.000000	0.000000
1.340000	0.000000	0.000000	0.000000	0.000000	1.296815	0.000000	19.745185	0.000000	0.000000	-39.490370	-30.000000	0.000000	0.000000	19.745185	0.000000	0.000000	-39.490370	-30.000000	0.000000	0.000000	0.000000	0.000000	0.000000
1.350000	0.000000	0.000000	0.000000	0.000000	1.300000	0.000000	20.000000	0.000000	0.000000	-40.000000	-30.000000	0.000000	0.000000	20.000000	0.000000	0.000000	-40.000000	-30.000000	0.000000	0.000000	0.000000	0.000000	0.000000
1.360000	0.000000	0.000000	0.000000	0.000000	1.296815	0.000000	19.745185	0.000000	0.000000	-39.490370	-30.000000	0.000000	0.000000	19.745185	0.000000	0.000000	-39.490370	-30.000000	0.000000	0.000000	0.000000	0.000000	0.000000
1.370000	0.000000	0.000000	0.000000	0.000000	1.287852	0.000000	19.028148	0.000000	0.000000	-38.056296	-30.000000	0.000000	0.000000	19.028148	0.000000	0.000000	-38.056296	-30.000000	0.000000	0.000000	0.000000	0.000000	0.000000
1.380000	0.000000	0.000000	0.000000	0.000000	1.274000	0.000000	17.920000	0.000000	0.000000	-35.840000	-30.000000	0.000000	0.000000	17.920000	0.000000	0.000000	-35.840000	-30.000000	0.000000	0.000000	0.000000	0.000000	0.000000
1.390000	0.000000	0.000000	0.000000	0.000000	1.256148	0.000000	16.491852	0.000000	0.000000	-32.983704	-30.000000	0.000000	0.000000	16.491852	0.000000	0.000000	-32.983704	-30.000000	0.000000	0.000000	0.000000	0.000000	0.000000
1.400000	0.000000	0.000000	0.000000	0.000000	1.235185	0.000000	14.814815	0.000000	0.000000	-29.629630	-30.000000	0.000000	0.000000	14.814815	0.000000	0.000000	-29.629630	-30.000000	0.000000	0.000000	0.000000	0.000000	0.000000
1.410000	0.000000	0.000000	0.000000	0.000000	1.212000	0.000000	12.960000	0.000000	0.000000	-25.920000	-30.000000	0.000000	0.000000	12.960000	0.000000	0.000000	-25.920000	-30.000000	0.000000	0.000000	0.000000	0.000000	0.000000
1.420000	0.000000	0.000000	0.000000	0.000000	1.187481	0.000000	10.998519	0.000000	0.000000	-21.997037	-30.000000	0.000000	0.000000	10.998519	0.000000	0.000000	-21.997037	-30.000000	0.000000	0.000000	0.000000	0.000000	0.000000
1.430000	0.000000	0.000000	0.000000	0.000000	1.162519	0.000000	9.001481	0.000000	0.000000	-18.002963	-30.000000	0.000000	0.000000	9.001481	0.000000	0.000000	-18.002963	-30.000000	0.000000	0.000000	0.000000	0.000000	0.000000
1.440000	0.000000	0.000000	0.000000	0.000000	1.138000	0.000000	7.040000	0.000000	0.000000	-14.080000	-30.000000	0.000000	0.000000	7.040000	0.000000	0.000000	-14.080000	-30.000000	0.000000	0.000000	0.000000	0.000000	0.000000
1.450000	0.000000	0.000000	0.000000	0.000000	1.114815	0.000000	5.185185	0.000000	0.000000	-10.370370	-30.000000	0.000000	0.000000	5.185185	0.000000	0.000000	-10.370370	-30.000000	0.000000	0.000000	0.000000	0.000000	0.000000
1.460000	0.000000	0.000000	0.000000	0.000000	1.093852	0.000000	3.508148	0.000000	0.000000	-7.016296	-30.000000	0.000000	0.000000	3.508148	0.000000	0.000000	-7.016296	-30.000000	0.000000	0.000000	0.000000	0.000000	0.000000
1.470000	0.000000	0.000000	0.000000	0.000000	1.076000	0.000000	2.080000	0.000000	0.000000	-4.160000	-30.000000	0.000000	0.000000	2.080000	0.000000	0.000000	-4.160000	-30.000000	0.000000	0.000000	0.000000	0.000000	0.000000
1.480000	0.000000	0.000000	0.000000	0.000000	1.062148	0.000000	0.971852	0.000000	0.000000	-1.943704	-30.000000	0.000000	0.000000	0.971852	0.000000	0.000000	-1.943704	-30.000000	0.000000	0.000000	0.000000	0.000000	0.000000
1.490000	0.000000	0.000000	0.000000	0.000000	1.053185	0.000000	0.254815	0.000000	0.000000	-0.509630	-30.000000	0.000000	0.000000	0.254815	0.000000	0.000000	-0.509630	-30.000000	0.000000	0.000000	0.000000	0.000000	0.000000
1.500000	0.000000	0.000000	0.000000	0.000000	1.050000	0.000000	0.000000	0.000000	0.000000	-0.000000	-30.000000	0.000000	0.000000	0.000000	0.000000	0.000000	-0.000000	-30.000000	0.000000	0.000000	-0.000000	0.000000	0.000000
1.510000	0.000000	0.000000	0.000000	0.000000	1.048924	0.000000	0.146667	0.000000	0.000000	-0.293333	-29.755556	0.000000	0.000000	0.146667	0.000000	0.000000	-0.293333	-29.755556	0.000000	0.000000	-0.097778	0.000000	0.000000
1.520000	0.000000	0.000000	0.000000	0.000000	1.045796	0.000000	0.573333	0.000000	0.000000	-1.146667	-29.044444	0.000000	0.000000	0.573333	0.000000	0.000000	-1.146667	-29.044444	0.000000	0.000000	-0.382222	0.000000	0.000000
1.530000	0.000000	0.000000	0.000000	0.000000	1.040760	0.000000	1.260000	0.000000	0.000000	-2.520000	-27.900000	0.000000	0.000000	1.260000	0.000000	0.000000	-2.520000	-27.900000	0.000000	0.000000	-0.840000	0.000000	0.000000
1.540000	0.000000	0.000000	0.000000	0.000000	1.033964	0.000000	2.186667	0.000000	0.000000	-4.373333	-26.355556	0.000000	0.000000	2.186667	0.000000	0.000000	-4.373333	-26.355556	0.000000	0.000000	-1.457778	0.000000	0.000000
1.550000	0.000000	0.000000	0.000000	0.000000	1.025556	0.000000	3.333333	0.000000	0.000000	-6.666667	-24.444444	0.000000	0.000000	3.333333	0.000000	0.000000	-6.666667	-24.444444	0.000000	0.000000	-2.222222	0.000000	0.000000
1.560000	0.000000	0.000000	0.000000	0.000000	1.015680	0.000000	4.680000	0.000000	0.000000	-9.360000	-22.200000	0.000000	0.000000	4.680000	0.000000	0.000000	-9.360000	-22.200000	0.000000	0.000000	-3.120000	0.000000	0.000000
1.570000	0.000000	0.000000	0.000000	0.000000	1.004484	0.000000	6.206667	0.000000	0.000000	-12.413333	-19.655556	0.000000	0.000000	6.206667	0.000000	0.000000	-12.413333	-19.655556	0.000000	0.000000	-4.137778	0.000000	0.000000
1.580000	0.000000	0.000000	0.000000	0.000000	0.992116	0.000000	7.893333	0.000000	0.000000	-15.786667	-16.844444	0.000000	0.000000	7.893333	0.000000	0.000000	-15.786667	-16.844444	0.000000	0.000000	-5.262222	0.000000	0.000000
1.590000	0.000000	0.000000	0.000000	0.000000	0.978720	0.000000	9.720000	0.000000	0.000000	-19.440000	-13.800000	0.000000	0.000000	9.720000	0.000000	0.000000	-19.440000	-13.800000	0.000000	0.000000	-6.480000	0.000000	0.000000
1.600000	0.000000	0.000000	0.000000	0.000000	0.964444	0.000000	11.666667	0.000000	0.000000	-23.333333	-10.555556	0.000000	0.000000	11.666667	0.000000	0.000000	-23.333333	-10.555556	0.000000	0.000000	-7.777778	0.000000	0.000000
1.610000	0.000000	0.000000	0.000000	0.000000	0.949436	0.000000	13.713333	0.000000	0.000000	-27.426667	-7.144444	0.000000	0.000000	13.713333	0.000000	0.000000	-27.426667	-7.144444	0.000000	0.000000	-9.142222	0.000000	0.000000
1.620000	0.000000	0.000000	0.000000	0.000000	0.933840	0.000000	15.840000	0.000000	0.000000	-31.680000	-3.600000	0.000000	0.000000	15.840000	0.000000	0.000000	-31.680000	-3.600000	0.000000	0.000000	-10.560000	0.000000	0.000000
1.630000	0.000000	0.000000	0.000000	0.000000	0.917804	0.000000	18.026667	0.000000	0.000000	-36.053333	0.044444	0.000000	0.000000	18.026667	0.000000	0.000000	-36.053333	0.044444	0.000000	0.000000	-12.017778	0.000000	0.000000
1.640000	0.000000	0.000000	0.000000	0.000000	0.901476	0.000000	20.253333	0.000000	0.000000	-40.506667	3.755556	0.000000	0.000000	20.253333	0.000000	0.000000	-40.506667	3.755556	0.000000	0.000000	-13.502222	0.000000	0.000000
1.650000	0.000000	0.000000	0.000000	0.000000	0.885000	0.000000	22.500000	0.000000	0.000000	-45.000000	7.500000	0.000000	0.000000	22.500000	0.000000	0.000000	-45.000000	7.500000	0.000000	0.000000	-15.000000	0.000000	0.000000
1.660000	0.000000	0.000000	0.000000	0.000000	0.868524	0.000000	24.746667	0.000000	0.000000	-49.493333	11.244444	0.000000	0.000000	24.746667	0.000000	0.000000	-49.493333	11.244444	0.000000	0.000000	-16.497778	0.000000	0.000000
1.670000	0.000000	0.000000	0.000000	0.000000	0.852196	0.000000	26.973333	0.000000	0.000000	-53.946667	14.955556	0.000000	0.000000	26.973333	0.000000	0.000000	-53.946667	14.955556	0.000000	0.000000	-17.982222	0.000000	0.000000
1.680000	0.000000	0.000000	0.000000	0.000000	0.836160	0.000000	29.160000	0.000000	0.000000	-58.320000	18.600000	0.000000	0.000000	29.160000	0.000000	0.000000	-58.320000	18.600000	0.000000	0.000000	-19.440000	0.000000	0.000000
1.690000	0.000000	0.000000	0.000000	0.000000	0.820564	0.000000	31.286667	0.000000	0.000000	-62.573333	22.144444	0.000000	0.000000	31.286667	0.000000	0.000000	-62.573333	22.144444	0.000000	0.000000	-20.857778	0.000000	0.000000
1.700000	0.000000	0.000000	0.000000	0.000000	0.805556	0.000000	33.333333	0.000000	0.000000	-66.666667	25.555556	0.000000	0.000000	33.333333	0.000000	0.000000	-66.666667	25.555556	0.000000	0.000000	-22.222222	0.000000	0.000000
1.710000	0.000000	0.000000	0.000000	0.000000	0.791280	0.000000	35.280000	0.000000	0.000000	-70.560000	28.800000	0.000000	0.000000	35.280000	0.000000	0.000000	-70.560000	28.800000	0.000000	0.000000	-23.520000	0.000000	0.000000
1.720000	0.000000	0.000000	0.000000	0.000000	0.777884	0.000000	37.106667	0.000000	0.000000	-74.213333	31.844444	0.000000	0.000000	37.106667	0.000000	0.000000	-74.213333	31.844444	0.000000	0.000000	-24.737778	0.000000	0.000000
